<mxfile
  host="Electron" 
  agent="Mozilla/5.0 (Macintosh; Intel Mac OS X 10_15_7) AppleWebKit/537.36 (KHTML, like Gecko) draw.io/25.0.2 Chrome/128.0.6613.186 Electron/32.2.5 Safari/537.36" 
  version="25.0.2"
  >
  <diagram
    name="-"
    >
    <mxGraphModel
      grid="1" 
      gridSize="10" 
      guides="1" 
      tooltips="1" 
      connect="1" 
      arrows="1" 
      fold="1" 
      page="1" 
      pageScale="1" 
      pageWidth="1" 
      pageHeight="1" 
      math="0" 
      shadow="0"
      >
      <root>
        <mxCell
          id="page"
          />
        <mxCell
          id="root" 
          parent="page"
          />
        <mxCell
          style="verticalAlign=top;aspect=fixed;align=center;spacingLeft=5;spacingRight=5;spacingBottom=5;strokeColor=none;" 
          id="shape_" 
          parent="root" 
          value=" " 
          vertex="1"
          >
          <mxGeometry
            as="geometry" 
            width="60" 
            height="52" 
            x="0" 
            y="0"
            />
          </mxCell>
        <mxCell
          style="editableCssRules=.*;html=1;shape=image;verticalLabelPosition=bottom;labelBackgroundColor=#ffffff;verticalAlign=top;aspect=fixed;imageAspect=0;image=data:image/svg+xml,PHN2ZyB4bWxucz0iaHR0cDovL3d3dy53My5vcmcvMjAwMC9zdmciIHhtbG5zOnY9Imh0dHBzOi8vdmVjdGEuaW8vbmFubyIgd2lkdGg9IjM3OS4yNTY5MTM2MjgxNTg1NCIgaGVpZ2h0PSIyNzEuOTY3NzQwMjY0MjUzMyIgdmlld0JveD0iLTAuMTQ0OTk5OTk1ODI3Njc0ODcgMC4wMTEwMDAwMDA4NzE3MTc5MyAxMDAuMzQ0OTkzNTkxMzA4NiA3MS45NTgwMDAxODMxMDU0NyI+JiN4YTs8c3R5bGUgdHlwZT0idGV4dC9jc3MiPiYjeGE7CS5zdDB7ZmlsbDojNDI4NWY0O30mI3hhOwkuc3Qxe2ZpbGw6IzY2OWRmNjt9JiN4YTs8L3N0eWxlPiYjeGE7CTxwYXRoIGNsYXNzPSJzdDAiIGQ9Ik0xMDAuMiAzOS40ODNMNzYuNDI4IDcxLjk2OUgyOC44NjVsLTQuNzgzLTYuNTgyIDQuNzgzLTYuNDIyaDM4LjAxM0w5MC42MyAyNi40MzJ6TS0uMTQ1IDMyLjQ5OEwyMy42MjcuMDExSDcxLjE5bDQuNzgzIDYuNTgyLTQuNzgzIDYuNDIySDMzLjE3N0w5LjQyNSA0NS41NDl6Ii8+JiN4YTsJPHBhdGggY2xhc3M9InN0MSIgZD0iTTMzLjAzNCA0My4xMjJsMTAuMDctMTQuMDIzaDI0LjAybC05Ljc4OSAxNC4wMjN6Ii8+JiN4YTs8L3N2Zz4;strokeColor=none;" 
          id="automl_vision_" 
          parent="shape_" 
          value=" " 
          vertex="1"
          >
          <mxGeometry
            width="40" 
            height="32" 
            as="geometry" 
            x="10" 
            y="10"
            />
          </mxCell>
        </root>
      </mxGraphModel>
    </diagram>
  </mxfile>